<?xml version="1.0" encoding="UTF-8" standalone="no"?>
<!DOCTYPE svg PUBLIC "-//W3C//DTD SVG 20010904//EN"
              "http://www.w3.org/TR/2001/REC-SVG-20010904/DTD/svg10.dtd">

<svg xmlns="http://www.w3.org/2000/svg"
     viewBox="0 0 100 100"
     id="x">
  <path id="Selection"
        d="M 43.00,26.04
           C 44.70,27.62 47.54,30.96 50.00,30.96
             53.86,30.96 57.66,23.45 64.00,21.66
             71.63,19.51 81.70,30.48 77.98,38.00
             76.06,41.88 69.98,46.03 69.20,49.00
             68.27,52.53 73.79,56.55 75.85,59.00
             80.83,64.90 79.24,69.89 73.96,74.89
             72.27,76.49 70.33,78.03 68.00,78.53
             60.49,80.15 54.77,70.19 51.00,69.20
             46.49,68.01 42.72,76.23 37.00,78.25
             29.68,80.83 18.37,70.63 23.31,61.00
             25.66,56.43 30.96,53.24 30.96,50.00
             30.96,47.01 26.29,43.89 23.89,40.00
             18.92,31.96 24.35,24.82 32.00,21.66
             37.50,20.83 39.02,22.36 43.00,26.04 Z" />
</svg>
